<svg width="16" height="12" viewBox="0 0 16 12" fill="none" xmlns="http://www.w3.org/2000/svg">
<path d="M8 4.771L14.556 0.0880003C14.378 0.0370003 14.194 0 14 0H2C1.806 0 1.622 0.0370003 1.444 0.0880003L8 4.771Z" fill="#000748" fill-opacity="0.7"/>
<path d="M8.581 6.81322C8.407 6.93822 8.204 7.00022 8 7.00022C7.796 7.00022 7.593 6.93822 7.419 6.81322L0.055 1.55322C0.022 1.69722 0 1.84622 0 2.00022V10.0002C0 11.1032 0.897 12.0002 2 12.0002H14C15.103 12.0002 16 11.1032 16 10.0002V2.00022C16 1.84622 15.979 1.69722 15.945 1.55422L8.581 6.81322Z" fill="#000748" fill-opacity="0.7"/>
</svg>
