<svg width="16" height="16" viewBox="0 0 16 16" fill="none" xmlns="http://www.w3.org/2000/svg">
<g clip-path="url(#clip0)">
<path d="M15.6412 12.6447L13.1703 10.1734C12.6781 9.68326 11.8631 9.69815 11.3538 10.2076L10.1089 11.4522C10.0302 11.4089 9.94883 11.3636 9.86324 11.3156C9.07712 10.88 8.00117 10.283 6.86896 9.14995C5.7334 8.01452 5.13583 6.93692 4.69892 6.15029C4.65281 6.06695 4.60864 5.9866 4.56501 5.9103L5.40051 5.07605L5.81127 4.66478C6.32136 4.15455 6.33543 3.33974 5.84441 2.84813L3.37346 0.376627C2.88244 -0.114299 2.06704 -0.099406 1.55694 0.410826L0.860546 1.11122L0.879576 1.13011C0.646065 1.42807 0.450936 1.77172 0.305726 2.1423C0.171871 2.49505 0.088533 2.83167 0.0504265 3.16897C-0.275846 5.87385 0.960202 8.3459 4.31468 11.7004C8.95158 16.337 12.6883 15.9867 12.8495 15.9696C13.2006 15.9277 13.5371 15.8438 13.879 15.711C14.2464 15.5675 14.5898 15.3726 14.8876 15.1396L14.9028 15.1531L15.6083 14.4623C16.1174 13.9521 16.132 13.1371 15.6412 12.6447Z" fill="#000748" fill-opacity="0.7"/>
</g>
<defs>
<clipPath id="clip0">
<rect width="16" height="16" fill="white"/>
</clipPath>
</defs>
</svg>
